<svg aria-hidden="true" style="position: absolute; width: 0; height: 0; overflow: hidden;" version="1.1" xmlns="http://www.w3.org/2000/svg" xmlns:xlink="http://www.w3.org/1999/xlink">
<defs>
<symbol id="icon-instagram" viewBox="0 0 24 28">
<title>instagram</title>
<path d="M16 14c0-2.203-1.797-4-4-4s-4 1.797-4 4 1.797 4 4 4 4-1.797 4-4zM18.156 14c0 3.406-2.75 6.156-6.156 6.156s-6.156-2.75-6.156-6.156 2.75-6.156 6.156-6.156 6.156 2.75 6.156 6.156zM19.844 7.594c0 0.797-0.641 1.437-1.437 1.437s-1.437-0.641-1.437-1.437 0.641-1.437 1.437-1.437 1.437 0.641 1.437 1.437zM12 4.156c-1.75 0-5.5-0.141-7.078 0.484-0.547 0.219-0.953 0.484-1.375 0.906s-0.688 0.828-0.906 1.375c-0.625 1.578-0.484 5.328-0.484 7.078s-0.141 5.5 0.484 7.078c0.219 0.547 0.484 0.953 0.906 1.375s0.828 0.688 1.375 0.906c1.578 0.625 5.328 0.484 7.078 0.484s5.5 0.141 7.078-0.484c0.547-0.219 0.953-0.484 1.375-0.906s0.688-0.828 0.906-1.375c0.625-1.578 0.484-5.328 0.484-7.078s0.141-5.5-0.484-7.078c-0.219-0.547-0.484-0.953-0.906-1.375s-0.828-0.688-1.375-0.906c-1.578-0.625-5.328-0.484-7.078-0.484zM24 14c0 1.656 0.016 3.297-0.078 4.953-0.094 1.922-0.531 3.625-1.937 5.031s-3.109 1.844-5.031 1.937c-1.656 0.094-3.297 0.078-4.953 0.078s-3.297 0.016-4.953-0.078c-1.922-0.094-3.625-0.531-5.031-1.937s-1.844-3.109-1.937-5.031c-0.094-1.656-0.078-3.297-0.078-4.953s-0.016-3.297 0.078-4.953c0.094-1.922 0.531-3.625 1.937-5.031s3.109-1.844 5.031-1.937c1.656-0.094 3.297-0.078 4.953-0.078s3.297-0.016 4.953 0.078c1.922 0.094 3.625 0.531 5.031 1.937s1.844 3.109 1.937 5.031c0.094 1.656 0.078 3.297 0.078 4.953z"></path>
</symbol>
<symbol id="icon-youtube" viewBox="0 0 28 28">
<title>youtube</title>
<path d="M11.109 17.625l7.562-3.906-7.562-3.953v7.859zM14 4.156c5.891 0 9.797 0.281 9.797 0.281 0.547 0.063 1.75 0.063 2.812 1.188 0 0 0.859 0.844 1.109 2.781 0.297 2.266 0.281 4.531 0.281 4.531v2.125s0.016 2.266-0.281 4.531c-0.25 1.922-1.109 2.781-1.109 2.781-1.062 1.109-2.266 1.109-2.812 1.172 0 0-3.906 0.297-9.797 0.297v0c-7.281-0.063-9.516-0.281-9.516-0.281-0.625-0.109-2.031-0.078-3.094-1.188 0 0-0.859-0.859-1.109-2.781-0.297-2.266-0.281-4.531-0.281-4.531v-2.125s-0.016-2.266 0.281-4.531c0.25-1.937 1.109-2.781 1.109-2.781 1.062-1.125 2.266-1.125 2.812-1.188 0 0 3.906-0.281 9.797-0.281v0z"></path>
</symbol>
<symbol id="icon-bandcamp" viewBox="0 0 28 28">
<title>bandcamp</title>
<path d="M16.719 18.406l4.781-8.813h-10.219l-4.781 8.813h10.219zM28 14c0 7.734-6.266 14-14 14s-14-6.266-14-14 6.266-14 14-14 14 6.266 14 14z"></path>
</symbol>
<symbol id="icon-phone" viewBox="0 0 24 28">
<title>phone</title>
<path d="M20 18.641c0-0.078 0-0.172-0.031-0.25-0.094-0.281-2.375-1.437-2.812-1.687-0.297-0.172-0.656-0.516-1.016-0.516-0.688 0-1.703 2.047-2.312 2.047-0.313 0-0.703-0.281-0.984-0.438-2.063-1.156-3.484-2.578-4.641-4.641-0.156-0.281-0.438-0.672-0.438-0.984 0-0.609 2.047-1.625 2.047-2.312 0-0.359-0.344-0.719-0.516-1.016-0.25-0.438-1.406-2.719-1.687-2.812-0.078-0.031-0.172-0.031-0.25-0.031-0.406 0-1.203 0.187-1.578 0.344-1.031 0.469-1.781 2.438-1.781 3.516 0 1.047 0.422 2 0.781 2.969 1.25 3.422 4.969 7.141 8.391 8.391 0.969 0.359 1.922 0.781 2.969 0.781 1.078 0 3.047-0.75 3.516-1.781 0.156-0.375 0.344-1.172 0.344-1.578zM24 6.5v15c0 2.484-2.016 4.5-4.5 4.5h-15c-2.484 0-4.5-2.016-4.5-4.5v-15c0-2.484 2.016-4.5 4.5-4.5h15c2.484 0 4.5 2.016 4.5 4.5z"></path>
</symbol>
<symbol id="icon-send" viewBox="0 0 28 28">
<title>send</title>
<path d="M27.563 0.172c0.328 0.234 0.484 0.609 0.422 1l-4 24c-0.047 0.297-0.234 0.547-0.5 0.703-0.141 0.078-0.313 0.125-0.484 0.125-0.125 0-0.25-0.031-0.375-0.078l-7.078-2.891-3.781 4.609c-0.187 0.234-0.469 0.359-0.766 0.359-0.109 0-0.234-0.016-0.344-0.063-0.391-0.141-0.656-0.516-0.656-0.938v-5.453l13.5-16.547-16.703 14.453-6.172-2.531c-0.359-0.141-0.594-0.469-0.625-0.859-0.016-0.375 0.172-0.734 0.5-0.922l26-15c0.156-0.094 0.328-0.141 0.5-0.141 0.203 0 0.406 0.063 0.562 0.172z"></path>
</symbol>
<symbol id="icon-envelope" viewBox="0 0 28 28">
<title>envelope</title>
<path d="M28 11.094v12.406c0 1.375-1.125 2.5-2.5 2.5h-23c-1.375 0-2.5-1.125-2.5-2.5v-12.406c0.469 0.516 1 0.969 1.578 1.359 2.594 1.766 5.219 3.531 7.766 5.391 1.313 0.969 2.938 2.156 4.641 2.156h0.031c1.703 0 3.328-1.188 4.641-2.156 2.547-1.844 5.172-3.625 7.781-5.391 0.562-0.391 1.094-0.844 1.563-1.359zM28 6.5c0 1.75-1.297 3.328-2.672 4.281-2.438 1.687-4.891 3.375-7.313 5.078-1.016 0.703-2.734 2.141-4 2.141h-0.031c-1.266 0-2.984-1.437-4-2.141-2.422-1.703-4.875-3.391-7.297-5.078-1.109-0.75-2.688-2.516-2.688-3.938 0-1.531 0.828-2.844 2.5-2.844h23c1.359 0 2.5 1.125 2.5 2.5z"></path>
</symbol>
<symbol id="icon-facebook" viewBox="0 0 24 28">
<title>facebook</title>
<path d="M19.5 2c2.484 0 4.5 2.016 4.5 4.5v15c0 2.484-2.016 4.5-4.5 4.5h-2.938v-9.297h3.109l0.469-3.625h-3.578v-2.312c0-1.047 0.281-1.75 1.797-1.75l1.906-0.016v-3.234c-0.328-0.047-1.469-0.141-2.781-0.141-2.766 0-4.672 1.687-4.672 4.781v2.672h-3.125v3.625h3.125v9.297h-8.313c-2.484 0-4.5-2.016-4.5-4.5v-15c0-2.484 2.016-4.5 4.5-4.5h15z"></path>
</symbol>
</defs>
</svg>
